<svg id="Layer_1" data-name="Layer 1" xmlns="http://www.w3.org/2000/svg" xmlns:xlink="http://www.w3.org/1999/xlink" viewBox="0 0 1280 1280"><defs><style>.cls-1{fill:none;}.cls-2{fill:#29b895;}.cls-2,.cls-3{fill-rule:evenodd;}.cls-3{fill:#1f4098;}.cls-4{fill:#d94b7f;}.cls-5{fill:#eeaa49;}.cls-6{fill:#e98b37;}.cls-7{clip-path:url(#clip-path);}.cls-8{fill:url(#未命名的渐变_3);}.cls-9{clip-path:url(#clip-path-2);}.cls-10{fill:url(#未命名的渐变_4);}.cls-11{clip-path:url(#clip-path-3);}.cls-12{fill:url(#未命名的渐变_5);}.cls-13{fill:#265798;}</style><clipPath id="clip-path"><polygon class="cls-1" points="170.58 1050.87 261.07 1103.18 261.07 998.57 170.58 1050.87"/></clipPath><linearGradient id="未命名的渐变_3" x1="303.49" y1="1050.57" x2="318.86" y2="1050.57" gradientTransform="translate(-1603.37 -5090.78) scale(5.85)" gradientUnits="userSpaceOnUse"><stop offset="0" stop-color="#343065"/><stop offset="0.01" stop-color="#373066"/><stop offset="0.14" stop-color="#562f6f"/><stop offset="0.21" stop-color="#622f72"/><stop offset="0.55" stop-color="#7c3876"/><stop offset="1" stop-color="#a3467d"/></linearGradient><clipPath id="clip-path-2"><polygon class="cls-1" points="170.58 1050.87 261.07 998.57 170.58 946.37 170.58 1050.87"/></clipPath><linearGradient id="未命名的渐变_4" x1="368.6" y1="1040.09" x2="383.96" y2="1040.09" gradientTransform="translate(6731.64 -1353.39) rotate(90) scale(6.26)" gradientUnits="userSpaceOnUse"><stop offset="0" stop-color="#df5c34"/><stop offset="0.1" stop-color="#df5c34"/><stop offset="0.44" stop-color="#dc4c31"/><stop offset="1" stop-color="#d52829"/></linearGradient><clipPath id="clip-path-3"><polygon class="cls-1" points="170.58 1155.43 170.61 1155.43 261.07 1103.18 170.58 1050.87 170.58 1155.43"/></clipPath><linearGradient id="未命名的渐变_5" x1="303.2" y1="1059.19" x2="318.56" y2="1059.19" gradientTransform="translate(-1592.93 -5056.67) scale(5.82)" gradientUnits="userSpaceOnUse"><stop offset="0" stop-color="#a32942"/><stop offset="0.06" stop-color="#a82a45"/><stop offset="0.42" stop-color="#c22e54"/><stop offset="0.74" stop-color="#d1305d"/><stop offset="1" stop-color="#d73160"/></linearGradient></defs><path class="cls-2" d="M748.76,50.84c8.65-5.52,19.21-10.27,29.58-7.25,9.22,3.49,12.4,14.27,12.18,23.3q.06,169,0,338,159.86,0,319.68,0c8.5-.05,18.73,2.82,22.08,11.52,3.51,10.34-1.81,20.86-6.51,29.86-27.91,51.37-57.06,102-86.64,152.45-8.79,11.71-20.37,22.61-35,26.15-12.16,2.92-24.75,2.82-37.15,3-35.36.12-70.7,0-106.06,0-15.39,0-32.69.66-44.83,11.38-10.09,9.65-8.84,25.23-4.91,37.46,8.6,26.08,25,48.53,37.15,73a427.07,427.07,0,0,1-36.14-27c-35.91-31.77-68.78-67-96.57-106.19C632.32,501,589.21,359.68,581.37,218.28c-1.37-31,11.32-64.95,39.06-81.23Q684.63,94,748.76,50.84Z"/><path class="cls-3" d="M171.86,276.71c4.41-9.26,15.55-12.13,25-11.95q97,0,194.1,0c11.21.22,23,.66,33.11,6.15,10.28,5.55,18,14.52,25.88,22.92q35.43,40.27,70.77,80.63c1.35,1.41,3.76,4.55,5.64,1.83,13-14.07,25.29-28.8,38.21-43,10.78,68.72,37.35,134.36,73.3,193.68,45.78,75,105.94,140.78,174.38,195.66a427.07,427.07,0,0,0,36.14,27c7.81,8.51,15.26,17.38,22.76,26.16,5.63,6.55,9.47,16,5.94,24.44-3.86,8.38-13.73,11.78-22.39,11.67q-98,.07-196,0c-11,0-22.47-.31-32.48-5.34-10.5-5.44-18.57-14.31-26.47-22.9Q564.84,744.07,530,704.33a28.13,28.13,0,0,0-6.14-5.33c-24.64,27.59-48.77,55.63-73.32,83.29-8.05,9-16.3,18.18-27,24-10,5.22-21.5,5.68-32.49,5.68q-98.1-.06-196.22,0c-9.39.26-20.57-3.74-23.53-13.53-2.86-10,3.2-19.27,9.62-26.29q101.77-117,204-233.65C316.62,459.83,247.63,381.76,179.44,303,173.07,296.07,168.2,286.11,171.86,276.71Z"/><polygon class="cls-4" points="84.33 1100.66 84.33 1105.61 170.58 1155.38 170.58 1050.9 84.33 1100.66"/><polygon class="cls-5" points="84.33 996.14 170.58 946.33 84.33 896.57 84.33 996.14"/><polygon class="cls-6" points="84.33 996.11 84.33 1001.04 170.6 1050.88 170.6 946.36 84.33 996.11"/><g class="cls-7"><rect class="cls-8" x="170.58" y="998.57" width="90.49" height="104.61"/></g><g class="cls-9"><rect class="cls-10" x="170.58" y="946.37" width="90.49" height="104.5"/></g><g class="cls-11"><rect class="cls-12" x="170.58" y="1050.87" width="90.49" height="104.56"/></g><path class="cls-13" d="M792.35,1111.6l-38.56-57.16,38.9-54.32H779.12c-7.86.08-19.53,2.34-27.21,13.64-4,5.92-13.35,20.37-13.47,20.4l-.42.6-22.1-34.64H681.35l39.68,56-38.51,55.45h32L738,1077.78l23.25,33.82Z"/><path class="cls-13" d="M832,1111.6V997.12c-3.12.8-16.41,4.75-23.6,12.26-3,3.21-4.61,6.9-4.61,9.87v92.35Z"/><path class="cls-13" d="M975.48,1106.63c5.47,4.95,12,6.86,21.75,6.86,10.28,0,17.61-2.31,24.09-6v-19.25a34.82,34.82,0,0,1-14.5,3.12h-.06c-3.79,0-6.93-1-8.93-3.21s-2.87-5.44-2.87-9.38v-55.33h24.17l13-23.33H995V957.92c-11,3.87-20.23,10.08-23.5,13.92-3.43,4.14-4.64,7.63-4.64,14.28v94.5c0,13,3.25,21.1,8.66,26"/><path class="cls-13" d="M1084.91,998.89c-15.62-.06-30.22,6.18-33,8.27a8.63,8.63,0,0,0-3.72,7.16v14.93c10.27-3.5,23.8-5.58,32-5.58,8.43,0,15.48.92,20.2,4.78,5.34,4.43,6,11.8,6,15.29l-.14,2v.54l-.49-.08s-12.46-1.38-25.52-1.38-24.48,2.41-32.36,8.6c-6.88,5.32-12.3,15.56-12.3,26.37,0,12.27,5.48,21,11.75,26.1,6.48,5.31,18.54,7.85,28.76,7.85,10.94,0,18.31-1.82,23-3.7a22.1,22.1,0,0,0,6.46-3.52l.69-.69v5.79H1133v-65c0-15.12-2.66-27.45-10.52-35.46-10.4-10.55-22.51-12.32-37.57-12.32m-14.7,92.61c-4.5-2.79-6.3-7.77-6.3-12.33a15.89,15.89,0,0,1,2.18-8.16c3.2-5,9.44-8.1,19.84-8.31l2.38-.07c11.54,0,18,2.2,18,2.2v9.2c0,6-2.6,14.11-11.2,17.87a33.36,33.36,0,0,1-12.83,2.75,23.16,23.16,0,0,1-12-3.15"/><path class="cls-13" d="M898.35,998.89c-15.62-.06-30.16,6.18-33,8.27a8.71,8.71,0,0,0-3.78,7.16v14.93c10.31-3.5,23.8-5.58,32-5.58,8.4,0,15.51.92,20.17,4.78,5.33,4.43,6,11.72,6,15.29l-.06,2-.06.51-.43-.08s-12.46-1.38-25.52-1.38-24.47,2.41-32.43,8.6C854.46,1058.75,849,1069,849,1079.8c0,12.27,5.42,21,11.75,26.1,6.48,5.31,18.6,7.85,28.76,7.85,10.94,0,18.31-1.82,22.94-3.7s6.53-3.52,6.53-3.52l.75-.69v5.76H946.5v-64.93c0-15.12-2.7-27.45-10.51-35.46-10.55-10.55-22.58-12.32-37.64-12.32m-14.7,92.61c-4.5-2.79-6.3-7.77-6.3-12.33a15.17,15.17,0,0,1,2.24-8.16c3.14-5,9.41-8.1,19.78-8.31l2.38-.07c11.54,0,18,2.2,18,2.2v9.2c0,6-2.6,14.11-11.28,17.87a33.36,33.36,0,0,1-12.87,2.75,23.43,23.43,0,0,1-12-3.15"/><path class="cls-13" d="M623.59,998.89c-15.62-.06-30.23,6.18-33,8.27a8.89,8.89,0,0,0-3.78,7.16v14.93c10.31-3.5,23.86-5.58,32-5.58,8.4,0,15.51.92,20.23,4.78,5.35,4.43,6,11.72,6,15.29l-.06,2-.06.51-.45-.08s-12.38-1.38-25.56-1.38c-13,0-24.41,2.41-32.31,8.6-6.87,5.32-12.35,15.56-12.29,26.37,0,12.27,5.42,21,11.75,26.1,6.48,5.31,18.54,7.85,28.78,7.85,10.92,0,18.23-1.82,23-3.7a21,21,0,0,0,6.44-3.52l.75-.69v5.76h26.73v-64.93c0-15.12-2.7-27.45-10.52-35.46-10.48-10.55-22.49-12.32-37.63-12.32M609,1091.5c-4.58-2.79-6.3-7.77-6.3-12.33a15.68,15.68,0,0,1,2.12-8.16c3.2-5,9.47-8.1,19.9-8.31l2.35-.07c11.57,0,18,2.2,18,2.2v9.2c0,6-2.6,14.11-11.22,17.87a33.32,33.32,0,0,1-12.87,2.75,22.94,22.94,0,0,1-12-3.15"/><polygon class="cls-13" points="351.06 1055.83 314.37 1000.95 349.99 1000.95 369.74 1032.4 389.64 1000.95 424.44 1000.95 387.75 1055.49 426.03 1112.61 390.48 1112.61 369.13 1078.93 347.57 1112.61 312.76 1112.61 351.06 1055.83"/><polygon class="cls-13" points="437.67 1000.95 468.62 1000.95 468.62 1085.53 522.67 1085.53 522.67 1112.61 437.67 1112.61 437.67 1000.95"/></svg>